<?xml version="1.0" standalone="no"?>
<!DOCTYPE svg PUBLIC "-//W3C//DTD SVG 20010904//EN"
 "http://www.w3.org/TR/2001/REC-SVG-20010904/DTD/svg10.dtd">
<svg version="1.0" xmlns="http://www.w3.org/2000/svg"
 width="192.000000pt" height="192.000000pt" viewBox="0 0 192.000000 192.000000"
 preserveAspectRatio="xMidYMid meet">

<g transform="translate(0.000000,192.000000) scale(0.100000,-0.100000)"
fill="#000000" stroke="none">
<path d="M709 1761 c-69 -14 -147 -60 -199 -119 -27 -31 -50 -61 -50 -66 0 -6
-8 -24 -18 -41 -15 -27 -17 -74 -20 -485 -2 -250 -7 -459 -12 -464 -5 -5 -40
22 -85 65 -41 41 -84 78 -95 83 -27 12 -52 -10 -44 -38 8 -28 255 -276 274
-276 20 0 280 262 280 281 0 19 -20 39 -38 39 -8 0 -52 -36 -97 -81 -46 -45
-88 -78 -94 -74 -8 4 -11 144 -11 448 0 423 1 444 21 487 25 55 80 114 134
143 37 20 58 22 285 27 l245 5 3 29 c2 16 -2 32 -10 37 -16 10 -417 10 -469 0z"/>
<path d="M1312 1367 c-73 -74 -132 -140 -132 -148 0 -19 20 -39 38 -39 8 0 52
36 97 81 46 45 88 78 94 74 8 -4 11 -144 11 -448 0 -423 -1 -444 -21 -487 -25
-55 -80 -114 -134 -143 -37 -20 -58 -22 -285 -27 l-245 -5 -3 -32 c-3 -27 1
-33 22 -39 14 -3 125 -4 248 -2 l223 4 68 33 c78 38 148 110 180 187 20 47 21
69 25 499 2 263 7 454 12 459 6 6 41 -21 94 -72 46 -45 90 -82 98 -82 18 0 38
20 38 39 0 20 -260 281 -280 281 -9 0 -75 -60 -148 -133z"/>
</g>
</svg>
