<svg id="SvgjsSvg1001" width="288" height="288" xmlns="http://www.w3.org/2000/svg" version="1.1" xmlns:xlink="http://www.w3.org/1999/xlink" xmlns:svgjs="http://svgjs.com/svgjs"><defs id="SvgjsDefs1002"></defs><g id="SvgjsG1008"><svg xmlns="http://www.w3.org/2000/svg" xmlns:svgjs="http://svgjs.com/svgjs" xmlns:xlink="http://www.w3.org/1999/xlink" viewBox="0 0 288 288" width="288" height="288"><svg class="looka-1j8o68f" viewBox="0 0 369.968 79.691" style="background:red" width="288" height="288"><g fill="#ffffff" class="colorfff svgShape" transform="translate(-9.879 -9.55) scale(1.09767)"><polygon xmlns="http://www.w3.org/2000/svg" points="71 48.7 71 18.2 54.8 9 38.7 9 63 22.8 63 36.7 63 53.3" class="color000 svgShape" fill="#ffffff"></polygon><polygon xmlns="http://www.w3.org/2000/svg" points="29 66 54.8 81 54.7 81 55.1 81.3 71.7 71.7 79.7 57.8 55.3 72 29 56.8" class="color000 svgShape" fill="#ffffff"></polygon><polygon xmlns="http://www.w3.org/2000/svg" points="61.2 57 61.3 57 46.9 65.2 54.8 69.8 81 54.5 81 35.2 73 21.3 73 49.8" class="color000 svgShape" fill="#ffffff"></polygon><polygon xmlns="http://www.w3.org/2000/svg" points="61 23.9 34.8 8.7 18.2 18.3 10.2 32.3 35 18 47 25 46.8 25 61 33.2" class="color000 svgShape" fill="#ffffff"></polygon><polygon xmlns="http://www.w3.org/2000/svg" points="35.2 20.3 9 35.6 9 54.8 17 68.7 17 40.2 28.8 33.2 28.8 33.2 43.2 24.9" class="color000 svgShape" fill="#ffffff"></polygon><polygon xmlns="http://www.w3.org/2000/svg" points="19 41.3 19 71.8 35.2 81 51.4 81 27 67.2 27 53.3 27 36.7" class="color000 svgShape" fill="#ffffff"></polygon></g><path fill="#ffffff" d="M28.28 35.56 c-1.72 2.72 -5.24 5 -10.8 5 c-9 0 -15.68 -6.12 -15.68 -14.48 c0 -9.6 8.6 -14.64 16.84 -14.64 c5.16 0 8.4 1.96 10.24 4.2 l-5.8 7.8 l-0.12 -0.04 c2.08 -5.56 -0.44 -11.12 -6.56 -11.12 c-4.88 0 -8.64 3.64 -8.64 11.12 c0 8.16 5 15.12 12.44 15.12 c2.92 0 6.08 -1.04 7.8 -3.16 z M42.32 20.36 c6.44 0 10.64 3.96 10.64 9.96 c0 5.88 -4.2 9.96 -10.64 9.96 s-10.64 -3.96 -10.64 -9.96 c0 -5.88 4.2 -9.96 10.64 -9.96 z M43.88 39.6 c2.88 0 4.2 -2.4 4.2 -6.2 c0 -5.36 -2.48 -12.36 -7.32 -12.36 c-2.88 0 -4.2 2.36 -4.2 6.24 c0 5.32 2.52 12.32 7.32 12.32 z M71.68 40 l0.24 -2.76 l0 -9.52 c0 -4.48 -1.6 -5.52 -3.48 -5.52 c-2.48 0 -4.44 1.6 -5.96 2.72 l0 11.36 c0 2.16 0.36 2.92 1.56 3.72 l-6.88 0 l0.24 -2.76 l0 -15.36 c-0.56 -0.36 -1.6 -0.64 -2.44 -0.72 l0 -0.16 l7.72 -0.6 l-0.2 2.96 l0 0.6 c1.84 -1.28 5 -3.6 8.6 -3.6 c2.52 0 5.92 1.24 5.92 7.28 l0 8.64 c0 2.16 0.36 2.92 1.56 3.72 l-6.88 0 z M95.4 20.6 l6.08 0 l0 0.16 c-1.28 0.48 -2.16 1.24 -3.72 4.68 l-6.84 15.04 l-0.24 0 l-8.28 -17.16 l-1.64 -2.72 l9.64 0 l0 0.16 c-2 0.24 -3.72 1.2 -2.08 4.64 l4.48 9.24 l4.2 -9.24 c1.52 -3.44 -0.16 -4.16 -1.6 -4.64 l0 -0.16 z M123.12 36.08 l0.2 0.16 c-1.2 2.24 -4.44 4.04 -8.68 4.04 c-6.4 0 -10.76 -3.96 -10.76 -9.68 c0 -6.44 5.56 -10.24 11.52 -10.24 c8.64 0 9.36 8.52 4.24 8.52 l-10.56 0 c0.08 5.68 3.32 9.44 8.12 9.44 c1.92 0 4.68 -0.6 5.92 -2.24 z M114.08 21 c-2.72 0 -4.84 2.72 -5 7.2 l8.04 -0.08 c2.72 -0.04 1.6 -7.12 -3.04 -7.12 z M138.56 20.4 c0.8 0 1.44 0.12 2.2 0.48 l-4 6.64 l-0.16 0 c0.92 -2.4 0.16 -4.32 -1.32 -4.32 c-1.84 0 -2.84 2.4 -3.16 5.16 l0 7.92 c0 2.16 0.36 2.92 1.56 3.72 l-6.84 0 l0.2 -2.76 l0 -15.36 c-0.56 -0.36 -1.6 -0.64 -2.44 -0.72 l0 -0.16 l7.72 -0.6 l-0.2 2.96 l0 1.28 l0.52 0 c0.92 -2.56 3.08 -4.24 5.92 -4.24 z M149.12 40.64 l-4.36 -1 l0.12 -2.4 l0 -18.64 c0 -1.68 -1.04 -1.44 -3.72 -0.68 l0 -0.24 l9.12 -4.24 l-0.32 1.84 l0 5.32 l4.92 0 l-0.2 0.96 l-4.72 0 l0 17.72 l5.52 -0.16 l0 0.16 l-5.52 1.36 l-0.84 0 z M200.04000000000002 12.2 c-1.64 0.2 -3.04 0.64 -3.04 2.08 l0 23.44 c0 1.44 1.4 1.88 3.04 2.08 l0 0.2 l-11.56 0 l0 -0.2 c1.64 -0.2 3.04 -0.64 3.04 -2.08 l0 -23.64 l-11.16 26.36 l-11.44 -22.84 l0 15.32 c0 5.44 1.4 6.68 3.04 6.88 l0 0.2 l-6.88 0 l0 -0.2 c1.64 -0.2 3.04 -0.64 3.04 -6.08 l0 -17.72 c-0.76 -1.52 -1.52 -2.72 -3.24 -4 l7.04 0 l10.64 21.24 l8.96 -21.24 l8.52 0 l0 0.2 z M216.72000000000003 20.6 l6.16 0 l0 0.16 c-1.28 0.48 -2.24 1.16 -3.72 4.68 l-7.04 16.72 c-1.24 2.92 -2.44 5.84 -6.56 5.84 l-1.52 -1.76 c3.32 0 6 -1.2 7.32 -4.28 l0.08 -0.2 l-8.32 -18.44 l-1.48 -2.72 l9.4 0 l0 0.16 c-2 0.24 -3.6 1.2 -2.08 4.64 l4.8 10.96 l4.64 -10.96 c1.44 -3.44 -0.24 -4.16 -1.68 -4.64 l0 -0.16 z M259.6 12 l-2.56 8.24 l-0.16 0 c0.52 -5.44 -2.52 -7.64 -7 -7.64 l-1.52 0 l0 24.72 c0 1.84 1.4 2.28 3.84 2.48 l0 0.2 l-13.16 0 l0 -0.2 c2.44 -0.2 3.84 -0.64 3.84 -2.48 l0 -24.72 c-5.96 0.04 -8.36 2.24 -10.64 7.64 l-0.16 0 l1.32 -8.24 l26.2 0 z M280.84 36.08 l0.2 0.16 c-1.2 2.24 -4.44 4.04 -8.68 4.04 c-6.4 0 -10.76 -3.96 -10.76 -9.68 c0 -6.44 5.56 -10.24 11.52 -10.24 c8.64 0 9.36 8.52 4.24 8.52 l-10.56 0 c0.08 5.68 3.32 9.44 8.12 9.44 c1.92 0 4.68 -0.6 5.92 -2.24 z M271.8 21 c-2.72 0 -4.84 2.72 -5 7.2 l8.04 -0.08 c2.72 -0.04 1.6 -7.12 -3.04 -7.12 z M299.52000000000004 35.68 c1.52 2.2 3.08 3.8 4.24 4.16 l0 0.16 l-6.64 0 l-2.48 -3.96 l-2.8 -4.08 l-4.72 5.12 c-1.56 1.64 0.44 2.52 2.4 2.92 l-6.96 0 c1.08 -0.6 2.32 -1.52 3.68 -2.96 l5.2 -5.68 l-4.88 -7.12 c-1.56 -2.28 -2.92 -3.24 -4.04 -3.48 l0 -0.16 l6.96 0 l2.2 3.56 l2.68 3.96 l4.2 -4.6 c1.56 -1.72 -0.48 -2.52 -2.44 -2.92 l6.96 0 c-1.04 0.56 -2.08 1.32 -3.6 3 l-4.68 5.12 z M312.12 40.64 l-4.36 -1 l0.12 -2.4 l0 -18.64 c0 -1.68 -1.04 -1.44 -3.72 -0.68 l0 -0.24 l9.12 -4.24 l-0.32 1.84 l0 5.32 l4.92 0 l-0.2 0.96 l-4.72 0 l0 17.72 l5.52 -0.16 l0 0.16 l-5.52 1.36 l-0.84 0 z" class="colorfff svgShape" transform="translate(97.46 15.211) scale(.85565)"></path></svg></svg></g></svg>