<?xml version="1.0" standalone="no"?>
<!DOCTYPE svg PUBLIC "-//W3C//DTD SVG 20010904//EN"
 "http://www.w3.org/TR/2001/REC-SVG-20010904/DTD/svg10.dtd">
<svg version="1.0" xmlns="http://www.w3.org/2000/svg"
 width="1200.000000pt" height="1200.000000pt" viewBox="0 0 1200.000000 1200.000000"
 preserveAspectRatio="xMidYMid meet">

<g transform="translate(0.000000,1200.000000) scale(0.100000,-0.100000)"
fill="#000000" stroke="none">
<path d="M3522 8320 c-118 -17 -238 -113 -284 -228 l-23 -57 -3 -1192 -2
-1193 -726 -2 -726 -3 217 -314 216 -314 -27 -41 c-15 -23 -112 -164 -215
-313 l-188 -273 724 0 724 0 3 -217 c3 -212 4 -220 30 -275 55 -118 167 -199
299 -218 93 -14 4845 -13 4929 1 86 14 144 43 205 104 96 96 115 165 115 426
l0 179 724 2 723 3 -141 205 c-78 113 -174 253 -215 312 l-73 106 216 314 216
313 -725 3 -725 2 0 1168 c0 935 -3 1178 -14 1223 -35 149 -157 256 -319 280
-76 11 -4859 10 -4935 -1z m4960 -263 c51 -35 58 -67 58 -281 l0 -196 -2540 0
-2540 0 0 200 c0 245 6 262 99 291 14 4 1122 7 2461 6 2331 -2 2436 -3 2462
-20z m58 -1567 l0 -840 -878 0 -879 0 -664 616 -664 616 -6 -129 c-4 -70 -7
-347 -8 -615 l-1 -488 -990 0 -990 0 0 840 0 840 2540 0 2540 0 0 -840z
m-5818 -1021 c70 -35 98 -101 98 -226 l0 -84 -72 3 -73 3 -3 75 c-3 86 -18
110 -68 110 -62 0 -64 -9 -64 -342 0 -285 1 -299 20 -318 11 -11 33 -20 48
-20 49 0 61 25 64 130 l3 95 73 3 72 3 0 -108 c0 -84 -5 -117 -19 -149 -37
-81 -95 -114 -197 -115 -111 -1 -187 52 -214 150 -6 20 -10 164 -10 332 0 335
5 371 64 428 63 61 190 75 278 30z m469 20 c68 -15 130 -75 147 -141 15 -59
16 -617 2 -669 -28 -99 -102 -151 -217 -150 -81 0 -109 9 -156 51 -67 59 -72
86 -72 430 0 320 4 354 47 409 27 35 56 54 108 67 58 16 78 16 141 3z m509
-265 l65 -256 3 256 2 256 70 0 70 0 0 -470 0 -470 -80 0 -79 0 -9 33 c-5 17
-42 162 -83 320 l-74 288 -3 -321 -2 -320 -70 0 -70 0 0 470 0 470 98 0 97 0
65 -256z m435 234 c2 -13 23 -165 45 -338 22 -173 42 -319 43 -323 1 -5 22
139 45 320 24 180 46 336 48 346 4 14 17 17 75 17 38 0 69 -4 69 -9 0 -10
-125 -841 -135 -898 l-6 -33 -102 0 -102 0 -49 323 c-26 177 -58 388 -70 470
l-23 147 79 0 c72 0 78 -2 83 -22z m795 -48 l0 -70 -125 0 -125 0 0 -120 0
-120 100 0 100 0 0 -70 0 -70 -100 0 -100 0 0 -140 0 -140 125 0 125 0 0 -70
0 -70 -205 0 -205 0 0 470 0 470 205 0 205 0 0 -70z m401 59 c47 -16 94 -63
108 -108 6 -21 11 -81 11 -132 0 -102 -19 -163 -59 -191 l-21 -15 26 -24 c14
-13 31 -33 37 -44 6 -11 14 -100 18 -200 3 -99 10 -188 14 -197 6 -16 -1 -18
-73 -18 -64 0 -81 3 -86 16 -3 9 -6 80 -6 158 0 80 -5 157 -11 175 -13 36 -41
51 -95 51 l-34 0 0 -200 0 -200 -75 0 -75 0 0 470 0 470 144 0 c80 0 158 -5
177 -11z m639 -59 l0 -70 -80 0 -80 0 0 -400 0 -400 -75 0 -75 0 0 400 0 400
-80 0 -80 0 0 70 0 70 235 0 235 0 0 -70z m539 -245 c24 -173 45 -315 46 -315
1 0 22 142 46 315 l43 315 108 0 108 0 0 -470 0 -470 -70 0 -70 0 -1 323 c-1
177 -4 308 -9 290 -4 -17 -27 -162 -50 -322 l-44 -291 -67 0 -66 0 -6 38 c-3
20 -25 165 -49 322 l-43 285 -3 -322 -2 -323 -65 0 -65 0 0 470 0 470 108 0
107 0 44 -315z m585 298 c22 -75 86 -297 86 -301 0 -20 15 24 50 144 23 76 43
147 46 157 4 14 18 17 80 17 41 0 74 -3 74 -6 0 -3 -38 -124 -85 -268 l-85
-262 0 -202 0 -202 -80 0 -80 0 0 198 0 199 -89 271 -88 272 83 0 c70 0 83 -3
88 -17z m1036 -53 l0 -70 -75 0 -75 0 0 -400 0 -400 -80 0 -80 0 0 400 0 400
-75 0 -75 0 0 70 0 70 230 0 230 0 0 -70z m470 0 l0 -70 -125 0 -125 0 0 -120
0 -120 100 0 100 0 0 -70 0 -70 -100 0 -100 0 0 -140 0 -140 125 0 125 0 0
-70 0 -70 -205 0 -205 0 0 470 0 470 205 0 205 0 0 -70z m261 -75 c53 -160 43
-162 105 28 l38 117 73 0 c40 0 73 -4 73 -9 0 -4 -34 -104 -75 -220 -41 -117
-75 -220 -75 -230 0 -10 36 -118 80 -242 44 -123 80 -227 80 -232 0 -4 -37 -7
-82 -5 l-81 3 -52 155 -52 155 -52 -157 -53 -158 -74 0 c-41 0 -74 2 -74 3 0
2 38 111 85 241 l84 237 -79 225 c-44 123 -80 227 -80 230 0 2 37 4 82 2 l81
-3 48 -140z m789 75 l0 -70 -80 0 -80 0 0 -400 0 -400 -75 0 -75 0 0 400 0
400 -80 0 -80 0 0 70 0 70 235 0 235 0 0 -70z m-1110 -1206 c0 -206 -5 -224
-64 -260 -30 -18 -98 -19 -2481 -19 -2357 0 -2452 1 -2479 18 -48 32 -56 68
-56 267 l0 180 2540 0 2540 0 0 -186z"/>
<path d="M3693 7924 c-43 -21 -65 -57 -65 -108 -2 -85 62 -144 142 -133 58 7
92 35 109 86 12 37 11 48 -4 87 -29 76 -107 105 -182 68z"/>
<path d="M4053 7925 c-42 -18 -66 -58 -66 -108 0 -107 88 -165 188 -123 44 19
68 58 68 109 0 107 -90 166 -190 122z"/>
<path d="M4413 7925 c-118 -51 -73 -245 57 -245 77 0 131 50 132 124 2 106
-89 165 -189 121z"/>
<path d="M3076 5334 c-9 -8 -18 -25 -21 -37 -3 -12 -5 -149 -3 -303 3 -261 4
-284 22 -303 24 -27 70 -27 96 -1 19 19 20 33 20 318 0 334 -1 342 -65 342
-18 0 -41 -7 -49 -16z"/>
<path d="M5160 5209 l0 -132 45 6 c25 2 54 12 65 22 38 35 38 177 -1 216 -13
13 -33 19 -64 19 l-45 0 0 -131z"/>
</g>
</svg>
